<mxfile host="app.diagrams.net" agent="Mozilla/5.0 (Windows NT 10.0; Win64; x64) AppleWebKit/537.36 (KHTML, like Gecko) Chrome/131.0.0.0 Safari/537.36" version="25.0.3">
  <diagram name="페이지-1" id="DXrG6RBHk8EfYJ0cVZuX">
    <mxGraphModel grid="1" page="1" gridSize="10" guides="1" tooltips="1" connect="1" arrows="1" fold="1" pageScale="1" pageWidth="827" pageHeight="1169" math="0" shadow="0">
      <root>
        <mxCell id="0" />
        <mxCell id="1" parent="0" />
        <mxCell id="5rK0yduPM2hFeAOG0hjZ-3" value="" style="edgeStyle=orthogonalEdgeStyle;rounded=0;orthogonalLoop=1;jettySize=auto;html=1;" edge="1" parent="1" source="5rK0yduPM2hFeAOG0hjZ-1" target="5rK0yduPM2hFeAOG0hjZ-2">
          <mxGeometry relative="1" as="geometry" />
        </mxCell>
        <mxCell id="5rK0yduPM2hFeAOG0hjZ-1" value="작업 폴더 초기화&lt;div&gt;init&lt;/div&gt;" style="rounded=0;whiteSpace=wrap;html=1;" vertex="1" parent="1">
          <mxGeometry x="130" y="80" width="120" height="60" as="geometry" />
        </mxCell>
        <mxCell id="5rK0yduPM2hFeAOG0hjZ-5" value="" style="edgeStyle=orthogonalEdgeStyle;rounded=0;orthogonalLoop=1;jettySize=auto;html=1;" edge="1" parent="1" source="5rK0yduPM2hFeAOG0hjZ-2" target="5rK0yduPM2hFeAOG0hjZ-4">
          <mxGeometry relative="1" as="geometry" />
        </mxCell>
        <mxCell id="5rK0yduPM2hFeAOG0hjZ-2" value="(작업)" style="whiteSpace=wrap;html=1;rounded=0;" vertex="1" parent="1">
          <mxGeometry x="130" y="160" width="120" height="60" as="geometry" />
        </mxCell>
        <mxCell id="5rK0yduPM2hFeAOG0hjZ-9" value="" style="edgeStyle=orthogonalEdgeStyle;rounded=0;orthogonalLoop=1;jettySize=auto;html=1;" edge="1" parent="1" source="5rK0yduPM2hFeAOG0hjZ-4" target="5rK0yduPM2hFeAOG0hjZ-8">
          <mxGeometry relative="1" as="geometry" />
        </mxCell>
        <mxCell id="5rK0yduPM2hFeAOG0hjZ-4" value="변경 내역 확인&lt;div&gt;status&lt;/div&gt;" style="whiteSpace=wrap;html=1;rounded=0;dashed=1" vertex="1" parent="1">
          <mxGeometry x="130" y="241" width="120" height="60" as="geometry" />
        </mxCell>
        <mxCell id="5rK0yduPM2hFeAOG0hjZ-11" value="" style="edgeStyle=orthogonalEdgeStyle;rounded=0;orthogonalLoop=1;jettySize=auto;html=1;" edge="1" parent="1" source="5rK0yduPM2hFeAOG0hjZ-8" target="5rK0yduPM2hFeAOG0hjZ-10">
          <mxGeometry relative="1" as="geometry" />
        </mxCell>
        <mxCell id="5rK0yduPM2hFeAOG0hjZ-8" value="반영 파일 지정&lt;div&gt;add&lt;/div&gt;" style="whiteSpace=wrap;html=1;rounded=0;" vertex="1" parent="1">
          <mxGeometry x="130" y="321" width="120" height="60" as="geometry" />
        </mxCell>
        <mxCell id="5rK0yduPM2hFeAOG0hjZ-13" value="" style="edgeStyle=orthogonalEdgeStyle;rounded=0;orthogonalLoop=1;jettySize=auto;html=1;" edge="1" parent="1" source="5rK0yduPM2hFeAOG0hjZ-10" target="5rK0yduPM2hFeAOG0hjZ-12">
          <mxGeometry relative="1" as="geometry" />
        </mxCell>
        <mxCell id="5rK0yduPM2hFeAOG0hjZ-10" value="변경 내용 반영&lt;div&gt;commit&lt;/div&gt;" style="whiteSpace=wrap;html=1;rounded=0;" vertex="1" parent="1">
          <mxGeometry x="130" y="400" width="120" height="60" as="geometry" />
        </mxCell>
        <mxCell id="5rK0yduPM2hFeAOG0hjZ-12" value="변경 내용 확인&lt;div&gt;log&lt;/div&gt;" style="whiteSpace=wrap;html=1;rounded=0;dashed=1" vertex="1" parent="1">
          <mxGeometry x="130" y="480" width="120" height="60" as="geometry" />
        </mxCell>
        <mxCell id="T2Pp6pwfX38MpLjrD5T6-1" value="" style="endArrow=classic;html=1;rounded=0;fontSize=12;startSize=8;endSize=8;edgeStyle=elbowEdgeStyle;entryX=1;entryY=0.5;entryDx=0;entryDy=0;" edge="1" parent="1" source="5rK0yduPM2hFeAOG0hjZ-12" target="5rK0yduPM2hFeAOG0hjZ-2">
          <mxGeometry width="50" height="50" relative="1" as="geometry">
            <mxPoint x="390" y="380" as="sourcePoint" />
            <mxPoint x="380" y="260" as="targetPoint" />
            <Array as="points">
              <mxPoint x="320" y="320" />
            </Array>
          </mxGeometry>
        </mxCell>
      </root>
    </mxGraphModel>
  </diagram>
</mxfile>
